<svg width="224" height="220" viewBox="0 0 224 220" fill="none" xmlns="http://www.w3.org/2000/svg">
<path d="M223.791 131.053L210.241 65.6732C211.461 71.5832 205.411 78.7032 198.531 84.3532C198.091 84.7532 197.621 85.1432 197.111 85.5532L191.621 89.8932C170.011 106.893 135.751 132.373 126.081 137.673C125.441 138.043 124.801 138.393 124.151 138.713C124.011 138.783 123.871 138.843 123.731 138.913C123.221 139.163 122.721 139.403 122.211 139.633C122.081 139.693 121.951 139.733 121.831 139.793C121.311 140.013 120.781 140.233 120.261 140.423C120.171 140.453 120.071 140.483 119.981 140.523C119.421 140.723 118.861 140.913 118.301 141.073C118.241 141.093 118.181 141.103 118.121 141.123C117.521 141.293 116.931 141.443 116.341 141.573C116.311 141.573 116.281 141.583 116.261 141.593C115.641 141.733 115.011 141.843 114.401 141.933C114.401 141.933 114.391 141.933 114.381 141.933C113.101 142.113 111.831 142.193 110.581 142.173V219.993C118.281 219.793 125.791 217.643 132.411 213.743C142.361 208.263 168.841 187.203 199.871 162.233L212.041 152.453C220.131 145.993 224.011 139.583 223.921 132.823C223.951 132.223 223.921 131.623 223.821 131.033L223.791 131.053Z" fill="#4D22C7"/>
<path d="M13.7511 65.8332C13.7511 65.8332 13.7511 65.8232 13.7511 65.8132L13.7311 65.9332C13.7311 65.9332 13.7511 65.8632 13.7611 65.8332H13.7511Z" fill="#2C0E83"/>
<path d="M97.6411 137.773C97.6411 137.773 23.8911 83.4332 22.4111 82.3332C14.9611 76.5432 12.9211 71.2932 13.4711 67.1632L0.191068 132.103C0.0510678 132.823 -0.00893219 133.553 0.00106781 134.283C0.241068 143.493 8.15107 149.943 9.96107 151.293L89.9111 212.723C95.8911 217.193 103.181 219.563 110.651 219.473V142.193C106.081 142.143 101.681 140.733 97.6411 137.783V137.773Z" fill="#2C0E83"/>
<path d="M206.191 60.1633C206.051 60.0633 205.921 59.9533 205.791 59.8433C203.281 57.7333 153.721 23.9333 124.401 3.97327C120.531 1.31327 115.911 -0.0767307 111.191 0.00326935C106.481 0.0832693 101.911 1.63327 98.1211 4.42327L94.5311 7.11327C88.3111 11.7533 76.7611 20.3533 62.8211 30.2033C46.8411 41.5133 32.1511 51.3533 19.0711 59.1533C13.5211 62.4633 8.38106 71.4133 22.4011 82.3233C23.8811 83.4233 97.6311 137.763 97.6311 137.763C106.101 143.953 116.121 143.403 126.061 137.673C135.741 132.363 170.001 106.893 191.601 89.8933L197.091 85.5533C197.601 85.1433 198.071 84.7433 198.511 84.3533C207.741 76.7733 215.481 66.5433 206.171 60.1533L206.191 60.1633Z" fill="#7549FF"/>
</svg>
