<svg width="136" height="31" viewBox="0 0 136 31" fill="none" xmlns="http://www.w3.org/2000/svg">
  <path
    d="M19.5602 17.21C18.9413 17.21 18.3985 16.8928 18.0902 16.4127C18.433 17.1035 19.1553 17.5814 19.9903 17.5814C21.1589 17.5814 22.1066 16.6482 22.1066 15.4977C22.1066 14.3471 21.1589 13.4163 19.9903 13.4163C19.1553 13.4163 18.4353 13.8919 18.0902 14.5827C18.3985 14.1048 18.9413 13.7877 19.5578 13.7877C20.5171 13.7877 21.2946 14.5532 21.2946 15.4977C21.2946 16.4422 20.5171 17.21 19.5578 17.21H19.5602Z"
    fill="currentColor" />
  <path
    d="M19.9832 23.8076C15.3227 23.8076 11.5432 20.0887 11.5432 15.4977C11.5432 10.9068 15.3227 7.19239 19.9832 7.19239C23.7213 7.19239 26.8935 9.58637 28 12.9022C26.8267 8.3588 22.6447 5 17.6644 5C11.7755 5 7 9.70189 7 15.5C7 21.2981 11.7755 26 17.6644 26C22.6447 26 26.8244 22.6412 28 18.1001C26.8912 21.4159 23.7213 23.8099 19.9832 23.8099V23.8076Z"
    fill="currentColor" />
  <path
    d="M18.8997 9.22834C15.3802 9.22834 12.53 12.0368 12.53 15.4998C12.53 18.9628 15.3825 21.7713 18.8997 21.7713C21.8372 21.7713 24.3101 19.8144 25.0462 17.1532C24.3538 19.101 22.4698 20.4962 20.2546 20.4962C17.4505 20.4962 15.18 18.2584 15.18 15.4976C15.18 12.7367 17.4528 10.5012 20.2546 10.5012C22.4675 10.5012 24.3515 11.8964 25.0439 13.8419C24.3078 11.1829 21.8349 9.22607 18.8974 9.22607L18.8997 9.22834Z"
    fill="currentColor" />
  <path
    d="M16.8984 16.4082C17.3078 17.9302 18.7134 19.0513 20.388 19.0513C22.3824 19.0513 23.9973 17.4614 23.9973 15.4977C23.9973 13.5341 22.3824 11.9441 20.388 11.9441C18.7157 11.9441 17.3078 13.0652 16.9007 14.585C17.2871 13.4661 18.3614 12.6621 19.6289 12.6621C21.2185 12.6621 22.5067 13.9304 22.5067 15.4955C22.5067 17.0605 21.2185 18.3311 19.6289 18.3311C18.3614 18.3311 17.2848 17.5248 16.9007 16.4059L16.8984 16.4082Z"
    fill="currentColor" />
  <path
    d="M90.5899 21.7916H87.3789V15.765C85.8757 15.7173 84.2657 16.2643 82.9784 17.0066V21.7916H79.7677V15.765C78.2462 15.7059 76.6816 16.2802 75.3673 17.0066V21.7916H72.1562V13.4019H74.594C74.8102 13.4019 74.9694 14.2259 75.3015 14.2305C75.5221 14.2327 76.9863 13.5972 77.414 13.4882C79.1353 13.0501 81.5095 12.7051 82.6943 14.3326C84.5545 13.4973 89.1821 12.0468 90.2896 14.4666C90.3397 14.5755 90.5874 15.3064 90.5874 15.3541V21.7939L90.5899 21.7916Z"
    fill="currentColor" />
  <path
    d="M59.1987 21.7919H56.6425C56.4721 21.7919 56.4584 21.1903 55.8126 21.1903C54.2935 21.1903 52.1878 21.919 50.5778 22.0257C49.0678 22.1278 47.2213 22.0302 46.9621 20.1848C46.6413 17.8898 48.0126 17.2588 50.0002 16.9614C51.9875 16.6641 54.0275 16.6822 55.983 16.3486L55.9899 15.4088L48.1422 16.0013V13.8153C48.1422 13.7586 48.265 13.552 48.3516 13.5202C48.7289 13.3817 50.0728 13.325 50.5822 13.2841C52.3196 13.148 55.8581 12.9051 57.4158 13.4635C58.041 13.6882 58.5983 14.1149 58.8666 14.7392C58.9825 15.007 59.2009 15.8151 59.2009 16.0603V21.7919H59.1987ZM55.9855 18.0124L50.2367 18.6207L50.0548 18.791L50.1775 19.8284L50.3345 19.9918L55.9877 19.3131V18.0124H55.9855Z"
    fill="currentColor" />
  <path
    d="M128.523 21.7918H125.908C125.876 21.7918 125.772 21.2992 125.647 21.2266C125.29 21.02 120.866 21.962 120.021 22.0256C118.645 22.13 117.001 22.1164 116.48 20.5865C115.682 18.2461 117.255 17.2655 119.325 16.9613C121.342 16.664 123.452 16.7276 125.442 16.2895L125.435 15.411L117.469 16.0012L117.587 13.5224L121.922 13.1615C123.793 13.2841 127.266 12.5985 128.23 14.7028C128.28 14.8117 128.528 15.5426 128.528 15.5903V21.7941L128.523 21.7918ZM119.604 20.019L125.228 19.288C125.542 19.1723 125.563 18.0623 125.187 18.06L119.484 18.6002L119.604 20.019Z"
    fill="currentColor" />
  <path
    d="M115.561 13.1661V15.7651H113.837C113.608 15.7651 112.693 16.0262 112.407 16.1147C111.447 16.4144 110.567 16.975 109.617 17.2996V19.4265H114.611V21.7896H103.552V19.6036L103.729 19.4265H106.406V15.7629H103.552V13.3999H108.487L109.316 14.805C109.94 14.4577 110.581 14.149 111.252 13.9015C111.736 13.7222 113.308 13.1638 113.719 13.1638H115.561V13.1661Z"
    fill="currentColor" />
  <path
    d="M37.4975 13.4022L40.1742 19.6649L43.1463 13.4022H46.5938L42.5391 21.6012C42.455 21.7851 42.3142 21.7782 42.1413 21.7964C41.6955 21.8486 38.0844 21.8532 37.9091 21.7351L34.4027 14.1127L34.3457 13.3999H37.4975V13.4022Z"
    fill="currentColor" />
  <path
    d="M101.887 13.4021V15.6471H98.7945V19.5468H101.887V21.7918H92.7295V19.5468H95.6427L95.8224 19.3697V15.8241L95.6427 15.6471H92.7295V13.4021H101.887Z"
    fill="currentColor" />
  <path
    d="M65.025 9.85889V19.6673L70.851 19.1951L70.7329 21.7942C68.6248 21.8214 64.5452 22.6749 62.8283 21.3175C62.4507 21.0202 61.814 20.0645 61.814 19.6082V9.85889H65.025Z"
    fill="currentColor" />
  <path d="M99.27 10.449H95.2266V11.8677H99.27V10.449Z" fill="currentColor" />
</svg>